<?xml version="1.0"?>
<svg width="1208" height="1280" xmlns="http://www.w3.org/2000/svg" xmlns:svg="http://www.w3.org/2000/svg" preserveAspectRatio="xMidYMid meet">
 <metadata>Created by potrace 1.15, written by Peter Selinger 2001-2017</metadata>
 <g class="layer">
  <title>Layer 1</title>
  <g fill="#000000" id="svg_1" transform="translate(0 1280) scale(0.1 -0.1)">
   <path d="m6036,12519c-20,-58 -954,-3088 -1237,-4011l-73,-238l-2123,0c-1168,0 -2123,-3 -2122,-7c0,-5 23,-25 50,-46c28,-21 571,-438 1207,-926c636,-488 1380,-1057 1652,-1265c272,-208 501,-384 508,-390c10,-9 -123,-450 -643,-2140c-360,-1171 -654,-2130 -652,-2132c1,-1 36,23 77,54c99,74 2006,1534 2763,2115l598,459l37,-28c20,-15 237,-181 482,-369c363,-278 2650,-2030 2864,-2193l59,-46l-7,30c-4,16 -297,973 -652,2127c-355,1154 -643,2104 -641,2112c3,7 140,115 304,241c224,171 2139,1640 3036,2328c42,32 77,63 77,68c0,4 -954,8 -2120,8l-2119,0l-45,143c-25,78 -210,678 -411,1332c-606,1969 -857,2780 -861,2784c-2,2 -6,-2 -8,-10z" fill="#dbb51c" id="svg_2"/>
  </g>
 </g>
</svg>