<?xml version="1.0"?>
<svg width="1280" height="603" xmlns="http://www.w3.org/2000/svg" xmlns:svg="http://www.w3.org/2000/svg" preserveAspectRatio="xMidYMid meet">
 <metadata>Created by potrace 1.15, written by Peter Selinger 2001-2017</metadata>
 <g class="layer">
  <title>Layer 1</title>
  <g fill="#000000" id="svg_1" transform="translate(0 603) scale(0.1 -0.1)">
   <path d="m1846,6015c4,-11 0,-15 -16,-15c-12,0 -34,-9 -48,-21c-20,-15 -35,-19 -62,-14c-34,6 -187,17 -244,17c-15,1 -31,-4 -35,-11c-4,-6 -41,-13 -82,-15c-41,-3 -100,-10 -132,-16c-31,-6 -62,-8 -67,-5c-5,3 -19,1 -30,-5c-16,-9 -35,-7 -83,8c-74,24 -145,34 -153,21c-3,-5 -12,-5 -22,0c-25,13 -91,6 -142,-16c-25,-10 -65,-25 -89,-33c-39,-13 -44,-12 -53,3c-5,9 -18,17 -28,17c-11,0 -20,5 -20,10c0,6 -17,8 -42,4c-58,-8 -116,-6 -135,5c-11,5 -31,2 -60,-11c-24,-11 -54,-18 -66,-16c-12,1 -37,-7 -54,-20c-17,-12 -36,-22 -41,-22c-5,0 -12,-15 -15,-32c-2,-18 -10,-58 -16,-88c-6,-31 -8,-71 -5,-90c13,-78 16,-130 6,-130c-15,0 -23,-28 -28,-93c-3,-43 -1,-59 10,-63c10,-4 12,-14 5,-44c-5,-21 -13,-88 -18,-149c-6,-62 -16,-120 -25,-133c-14,-23 -20,-172 -8,-192c3,-6 6,-80 7,-165l2,-156l34,-3c19,-2 67,1 106,6c40,4 92,5 115,1l43,-6l-40,-2c-22,-1 -71,-8 -110,-16c-38,-8 -84,-15 -101,-15l-31,0l-6,-81c-6,-72 -4,-87 18,-140c28,-66 31,-103 10,-139c-8,-14 -14,-37 -15,-52c0,-15 -4,-37 -9,-50c-31,-83 -33,-98 -16,-136c26,-60 31,-67 53,-77c16,-7 22,-19 22,-42c0,-18 -4,-33 -9,-33c-5,0 -11,-9 -14,-21c-3,-12 -10,-18 -17,-14c-6,4 -18,1 -26,-6c-13,-10 -13,-15 1,-35c19,-29 21,-161 4,-249c-19,-101 -12,-191 20,-260c27,-59 30,-61 104,-92c59,-26 91,-33 139,-33c56,0 60,-1 43,-14c-11,-7 -45,-21 -75,-31c-86,-28 -109,-43 -140,-92c-49,-76 -73,-202 -75,-393c-1,-91 -6,-183 -10,-205c-9,-49 -32,-88 -46,-79c-8,4 -8,1 -1,-13c25,-47 53,-144 47,-164c-4,-11 -1,-50 6,-85c10,-53 11,-69 0,-86c-7,-11 -12,-43 -11,-71c1,-29 1,-54 0,-57c-13,-42 15,-151 58,-219c13,-22 13,-26 -2,-36c-14,-11 -12,-13 15,-19c17,-3 64,-6 103,-6c119,0 101,-15 -22,-18c-64,-2 -118,-5 -121,-7c-4,-5 -10,-43 -15,-111c-2,-22 -6,-49 -9,-60c-6,-19 -26,-303 -32,-437c-1,-37 2,-70 7,-73c5,-3 4,-12 -3,-20c-8,-10 -10,-41 -4,-107c8,-102 8,-127 -1,-238c-7,-96 18,-161 72,-184c19,-8 37,-21 40,-30c3,-8 12,-15 18,-15c7,0 38,-18 70,-40c31,-22 63,-40 70,-40c7,0 27,-7 45,-16c19,-9 39,-13 49,-8c30,13 56,12 68,-4c7,-10 22,-13 47,-10c20,2 37,0 37,-4c0,-14 104,-8 123,6c14,11 27,12 55,4c49,-14 141,-2 167,21c17,16 34,19 115,17c60,-2 111,-9 139,-20c32,-12 47,-14 57,-5c10,8 22,8 46,0c18,-6 35,-11 38,-10c3,0 17,-4 32,-10c17,-6 30,-7 33,-1c3,6 16,5 31,0c14,-6 29,-8 33,-6c4,3 43,6 87,7c50,2 92,9 114,20c30,14 45,15 100,7c36,-6 81,-10 100,-10c44,1 57,1 205,-2c66,-1 140,-8 165,-15c25,-7 52,-12 60,-12c49,1 121,10 155,20c50,14 102,14 110,1c4,-7 12,-7 25,0c10,5 31,10 47,10c15,1 39,7 52,14c15,8 35,11 55,6c57,-13 140,3 177,34c44,37 139,196 139,234c0,21 17,13 24,-10c3,-13 6,-44 6,-70c0,-60 34,-152 65,-176c19,-15 37,-18 89,-15c35,1 76,-1 89,-6c15,-6 40,-6 66,0c34,8 48,6 82,-11c36,-19 108,-24 123,-9c3,2 50,4 105,3c86,-1 104,-5 127,-23c23,-18 39,-22 89,-20c33,2 76,9 95,17c64,27 75,30 90,31c82,2 116,5 120,11c3,4 14,10 26,14c16,5 23,0 33,-21c9,-20 14,-24 21,-13c6,9 21,11 52,7c28,-4 49,-2 56,5c15,15 157,11 182,-5c15,-9 26,-8 53,5c22,10 39,13 49,7c10,-6 27,-5 45,2c53,21 145,28 150,12c5,-13 90,0 105,15c7,7 23,12 36,12c13,0 32,5 44,11c16,9 24,6 44,-12c17,-16 27,-20 35,-12c9,9 45,2 109,-24c8,-3 35,-7 59,-9c23,-2 49,-8 56,-14c7,-6 20,-8 29,-4c9,3 29,1 45,-6c24,-9 34,-9 59,4c17,9 42,16 56,16c14,0 28,5 31,11c4,6 13,8 20,5c7,-2 17,0 22,5c19,19 108,12 153,-11c38,-19 51,-21 109,-13l66,8l37,70c40,76 62,137 73,200c7,39 8,38 27,-50c11,-50 22,-100 24,-112c8,-42 47,-74 109,-89c116,-29 149,-34 158,-25c6,6 20,5 36,-4c40,-20 139,-20 185,-1c57,26 107,28 131,6c27,-25 96,-33 124,-14c11,8 21,13 21,10c0,-3 18,1 39,9c38,13 91,9 122,-11c8,-4 50,-10 94,-11c95,-4 111,-6 150,-22c20,-8 31,-9 33,-2c4,13 42,14 74,2c19,-7 29,-3 58,25c34,33 35,34 100,28c36,-3 87,-15 114,-26c52,-21 137,-21 144,0c2,7 22,9 52,5c27,-3 57,-2 67,2c35,16 127,15 151,-1c16,-10 36,-14 60,-10c107,17 132,18 145,7c20,-16 97,-17 107,-1c5,9 43,14 126,17c72,2 121,8 125,15c9,14 167,22 183,9c6,-5 44,-4 88,1c87,12 88,12 109,128c7,36 20,82 29,103l18,39l-2,-74c-1,-57 4,-84 22,-123c20,-45 28,-53 71,-68c27,-9 76,-17 109,-17c34,0 63,-4 66,-8c10,-17 114,-35 153,-27c21,5 70,10 108,11c117,5 189,12 215,22c15,6 55,7 94,3c80,-8 136,-5 149,8c6,6 17,7 28,1c11,-7 30,-5 56,4c28,10 45,11 58,4c13,-8 24,-7 36,0c21,13 68,8 106,-12c19,-9 46,-13 82,-10c37,4 64,0 88,-11c21,-10 45,-14 63,-10c16,3 37,2 47,-3c31,-16 215,-21 243,-7c14,7 44,17 65,21c22,4 43,11 46,16c3,5 27,11 53,14c40,4 53,0 91,-26c26,-18 46,-26 50,-20c4,7 13,6 27,-1c16,-9 34,-8 73,1c46,11 57,10 86,-4c29,-14 40,-15 84,-4c27,6 58,18 67,26c23,19 174,19 193,0c10,-10 100,4 115,18c18,15 56,9 81,-12c13,-12 22,-10 60,16c38,24 54,47 102,140c31,61 57,118 57,126c0,30 16,11 44,-52c41,-92 95,-149 174,-185c37,-16 78,-32 92,-35c14,-4 56,-20 93,-37c65,-29 70,-30 95,-15c15,9 32,26 39,39c6,12 18,26 27,31c24,13 45,106 45,200c0,49 3,93 7,100c4,6 7,47 6,90c0,43 4,78 9,78c5,0 9,11 9,24c0,14 4,35 9,48c5,13 11,81 15,153c4,71 11,134 16,139c14,14 12,35 -4,52c-14,13 -32,58 -56,141c-11,37 -10,50 9,106c22,68 27,130 12,170c-7,19 -19,26 -48,30c-62,7 -215,45 -225,55c-9,9 57,0 155,-22c32,-7 69,-11 82,-8c21,4 23,7 14,30c-14,35 -27,152 -34,296c-3,65 -8,122 -10,126c-3,4 0,30 5,56c6,27 17,85 25,128c8,43 21,89 30,102c8,13 15,31 15,41c0,10 12,40 26,67c25,48 26,51 14,123c-6,41 -21,95 -33,121c-21,48 -22,73 -13,356l1,49l-55,13c-30,6 -104,14 -163,17c-60,3 -111,7 -114,10c-9,10 112,22 219,22l108,0l0,142c0,129 2,143 19,152c17,9 28,47 37,121c9,74 8,279 -1,291c-23,30 -37,95 -39,178c-1,47 -8,103 -15,125c-8,21 -11,58 -8,82c2,24 1,44 -3,44c-14,0 -21,32 -9,46c6,7 9,19 6,26c-2,7 0,24 5,37c5,15 4,44 -3,78c-11,49 -11,55 7,68c19,14 19,14 -1,51c-27,51 -63,60 -183,44c-52,-6 -96,-10 -98,-7c-7,7 183,47 223,47c43,0 39,-11 49,129c4,58 3,86 -5,90c-8,5 -12,57 -14,153c-2,115 1,148 13,163c16,20 59,176 60,217c0,15 -5,30 -10,33c-6,4 -10,25 -10,48c2,64 -17,258 -28,297c-48,169 -61,198 -103,229c-29,22 -42,24 -128,23c-86,-1 -99,1 -126,22c-29,23 -33,23 -70,9c-22,-8 -52,-14 -66,-14c-15,0 -36,-9 -47,-19c-12,-11 -30,-17 -43,-15c-42,8 -68,-53 -78,-185l-6,-85l-39,104c-38,100 -42,105 -99,147c-33,25 -71,47 -86,50c-14,3 -43,9 -64,15c-20,5 -42,7 -47,4c-6,-4 -46,-8 -90,-9c-61,-2 -85,-7 -100,-21c-11,-10 -23,-15 -27,-12c-3,4 -20,-2 -38,-13c-34,-21 -104,-22 -142,-2c-12,7 -35,12 -50,11c-15,-1 -44,1 -63,5c-41,10 -137,53 -145,66c-6,10 -56,4 -90,-10c-77,-32 -139,-43 -188,-33c-45,9 -54,8 -78,-9c-27,-20 -86,-29 -104,-16c-6,4 -30,2 -54,-4c-38,-10 -46,-8 -73,12c-26,19 -38,21 -77,15c-25,-3 -57,-6 -71,-5c-14,1 -41,1 -60,0c-70,-3 -96,-2 -140,5c-25,4 -49,11 -55,15c-11,9 -216,5 -310,-5c-33,-4 -85,-8 -115,-9c-30,-2 -64,-6 -75,-10c-11,-4 -36,-14 -55,-21c-49,-20 -59,-20 -108,-6c-24,7 -65,10 -92,7c-30,-4 -52,-1 -56,5c-10,17 -55,0 -111,-43c-62,-47 -85,-84 -114,-178c-11,-39 -22,-70 -24,-70c-2,0 -3,36 -4,81c-2,151 -72,222 -248,253c-18,3 -35,1 -38,-4c-3,-6 -24,-10 -46,-10c-21,0 -39,-4 -39,-9c0,-15 -43,-17 -69,-4c-31,15 -101,15 -163,1c-38,-9 -54,-9 -86,4c-33,13 -43,13 -63,2c-28,-16 -81,-18 -95,-4c-5,5 -36,11 -69,13c-33,2 -67,7 -75,10c-29,10 -155,29 -188,28c-18,-1 -51,-10 -72,-21c-22,-11 -47,-20 -57,-20c-10,0 -23,-10 -28,-22c-8,-19 -16,-22 -48,-20c-21,2 -44,-1 -50,-7c-9,-7 -25,-6 -52,4c-22,8 -66,14 -97,15c-31,0 -60,4 -63,10c-18,29 -82,45 -169,43c-48,-1 -94,-7 -101,-13c-7,-5 -26,-7 -42,-4c-20,4 -42,0 -64,-12c-26,-14 -60,-18 -149,-19c-63,-1 -129,-5 -147,-9c-26,-7 -35,-4 -53,16c-14,17 -32,25 -57,26c-20,1 -41,6 -47,12c-22,22 -168,1 -283,-41c-32,-12 -68,-22 -80,-23c-29,-1 -92,-61 -109,-103c-8,-18 -14,-58 -15,-90l0,-58l-19,40c-10,22 -19,46 -19,53c-1,19 -56,96 -96,136c-36,36 -72,47 -170,52c-33,1 -76,6 -95,11c-53,14 -375,2 -470,-18c-48,-9 -89,-11 -232,-9c-14,0 -34,8 -44,17c-22,22 -63,24 -74,3c-6,-12 -28,-16 -92,-18c-45,-1 -96,-6 -113,-11c-40,-12 -90,-8 -111,10c-33,27 -67,36 -102,25c-23,-7 -42,-6 -66,2c-39,14 -152,16 -161,2c-9,-14 -33,-1 -41,22c-7,22 -20,14 -26,-16c-2,-11 -13,-21 -28,-23c-13,-2 -34,-10 -47,-18c-14,-9 -24,-11 -28,-5c-7,11 -59,6 -152,-17c-55,-13 -66,-13 -92,0c-30,15 -140,16 -175,2c-11,-5 -41,-4 -68,2c-27,5 -51,6 -54,2c-2,-4 -18,-15 -35,-23c-29,-15 -34,-14 -85,11c-30,14 -54,32 -54,38c0,6 -10,17 -23,24c-20,11 -35,9 -93,-8c-38,-12 -74,-25 -80,-29c-22,-14 -67,-118 -84,-192l-16,-75l-12,97c-6,53 -15,105 -21,115c-5,11 -32,31 -59,46c-41,22 -64,27 -138,30c-49,2 -104,-1 -122,-6c-22,-5 -38,-5 -46,2c-7,6 -37,11 -67,10c-30,0 -84,4 -122,10c-40,7 -75,8 -85,3c-26,-14 -167,-7 -267,13c-49,9 -100,17 -113,17c-12,0 -27,9 -33,19c-13,24 -82,28 -73,4z" fill="#7f3f00" id="svg_2"/>
  </g>
 </g>
</svg>