<svg version="1.2" xmlns="http://www.w3.org/2000/svg" viewBox="0 0 100 100" width="50" height="50">
    <style>.h0{fill:#ff0000}</style>
    <path class="h0" d="m52.5 98.8q-1 1.2-2.5 1.2q-1.5 0-2.5-1.2l-34.8-39.2q-0.5-0.5-1.5-1.7q-1-1.1-3.1-4.2q-2.1-3.1-3.8-6.4q-1.7-3.2-3-7.8q-1.3-4.7-1.3-9q0-14.4 7.1-22.4q7.1-8.1 19.6-8.1q3.4 0 7 1.4q3.6 1.4 6.7 3.8q3.1 2.4 5.4 4.4q2.2 2.1 4.2 4.5q2-2.4 4.2-4.5q2.3-2 5.4-4.4q3.1-2.4 6.7-3.8q3.6-1.4 7-1.4q12.5 0 19.6 8.1q7.1 8 7.1 22.4q0 14.4-12.8 29.3l-34.7 39z" />
</svg>