<svg id="stage-star" version="1.2" xmlns="http://www.w3.org/2000/svg" viewBox="0 0 100 100" width="100" height="100">
    <style>
        .star0{
            fill:#ffff00;
            filter: drop-shadow(0 0 3px black);
        }
    </style>
    <path class="star0" d="m96.6 35.9q3.4 0.5 3.4 2.9q0 1.3-1.6 3l-21.8 22.3l5.2 31.5q0.1 0.4 0.1 1.2q0 1.4-0.7 2.3q-0.6 0.9-1.8 0.9q-1.2 0-2.4-0.8l-27-14.8l-27 14.8q-1.3 0.8-2.4 0.8q-1.2 0-1.9-0.9q-0.6-0.9-0.6-2.3q0-0.3 0.1-1.2l5.2-31.5l-21.9-22.3q-1.5-1.7-1.5-3q0-2.4 3.4-2.9l30.1-4.6l13.6-28.7q1.1-2.6 2.9-2.6q1.8 0 2.9 2.6l13.6 28.7l30.1 4.6z" />
</svg>