<svg version="1.2" xmlns="http://www.w3.org/2000/svg" viewBox="0 0 92 104" width="92" height="104"><style>.s0{fill:#222222}.s1{fill:none;stroke:#ebebeb;stroke-width:5.4}.s2{fill:#ff7021}</style><path class="s0" d="m52.3 102.8c-25.1 3.3-48.3-12.9-51.8-36.3c-3.6-23.3 13.8-44.8 38.9-48.1c25.1-3.4 48.3 12.8 51.8 36.2c3.6 23.3-13.8 44.8-38.9 48.2z" /><path class="s1" d="m79.2 19.3c0 0-30-30-40.2-7.1" /><path class="s2" d="m84.1 17.7l1.4 1q0.3 0.3 0.3 0.7q-0.1 0.3-0.4 0.5l-1.7 0.7l0.8 1.6q0.1 0.4-0.1 0.7q-0.2 0.3-0.6 0.2l-1.8-0.2l-0.2 1.8q0 0.3-0.4 0.5q-0.1 0-0.1 0q-0.3 0.1-0.5-0.1l-1.5-1.1l-1 1.4q-0.2 0.3-0.6 0.3q-0.4-0.1-0.6-0.4l-0.7-1.7l-1.6 0.7q-0.4 0.2-0.7-0.1q-0.3-0.2-0.3-0.6l0.3-1.8l-1.8-0.2q-0.4 0-0.6-0.4q-0.1-0.4 0.1-0.7l1.1-1.4l-1.5-1q-0.3-0.3-0.3-0.7q0.1-0.4 0.4-0.5l1.7-0.7l-0.8-1.6q-0.1-0.4 0.1-0.7q0.2-0.3 0.6-0.2l1.8 0.2l0.2-1.8q0-0.4 0.4-0.5q0.4-0.2 0.7 0.1l1.4 1.1l1.1-1.4q0.2-0.4 0.6-0.3q0.4 0 0.5 0.4l0.7 1.7l1.7-0.7q0.3-0.2 0.6 0.1q0.4 0.2 0.3 0.6l-0.2 1.8l1.8 0.2q0.4 0 0.5 0.4q0.2 0.3-0.1 0.6z" /><path class="s0" d="m31.7 15.3c-0.2-1.2 0.7-2.2 1.9-2.4l10.8-1.4c1.3-0.2 2.4 0.6 2.6 1.8l0.6 3.9c0.2 1.2-0.7 2.2-2 2.4l-10.7 1.4c-1.3 0.2-2.4-0.6-2.6-1.8zm30.9-9.3" /></svg>