<?xml version="1.0" encoding="utf-8"?>
<!-- Generator: Adobe Illustrator 16.0.0, SVG Export Plug-In . SVG Version: 6.00 Build 0)  -->
<!DOCTYPE svg PUBLIC "-//W3C//DTD SVG 1.1//EN" "http://www.w3.org/Graphics/SVG/1.1/DTD/svg11.dtd">
<svg version="1.1" xmlns="http://www.w3.org/2000/svg" xmlns:xlink="http://www.w3.org/1999/xlink" x="0px" y="0px"
	 width="505.333px" height="297.699px" viewBox="0 0 505.333 297.699" enable-background="new 0 0 505.333 297.699"
	 xml:space="preserve">
<g id="Capa_1">
</g>
<g id="Capa_5">
</g>
<g id="Capa_4">
	<path opacity="0.2" fill="#6186BC" d="M301.888,249.4c0,0,50.879-35.202,59.479-45.104s15.839-9.75,29.85-2.768
		c15.666,7.808,63.25,56.084,74.25,63.991s-14.519,31.077-14.519,31.077S344.2,353.164,328.033,342.631
		C311.866,332.096,301.888,249.4,301.888,249.4z"/>
	<path opacity="0.2" fill="#6186BC" d="M153.517,258.387c0,0,44.233-25.066,53.899-31.588s20.666-8.921,26.333-8.555
		s13.667-1.131,29.333,6.451s31.666,14.695,53.332,19.472c21.668,4.777,38.053,26.11,38.053,26.11s-112.051,19.667-113.051,19.667
		S153.517,258.387,153.517,258.387z"/>
	<path opacity="0.5" fill="#6186BC" d="M41.785,282.755c0,0,44.233-25.066,53.899-31.588s20.666-8.921,26.333-8.555
		s13.667-1.131,29.333,6.451s31.666,14.695,53.333,19.472c21.668,4.777,38.053,26.11,38.053,26.11s-112.052,19.667-113.052,19.667
		S41.785,282.755,41.785,282.755z"/>
	<path fill="#FFFFFF" d="M227.834,214.116c-5.862,2.024-14.584,4.418-17.501,8.55s-4.299,5.08-6.701,6.555
		s13.159,1.188,15.034,1.771s9.001,8.116,11.25,8.349s7.691-6.041,9.22-7.175s4.196,0.134,8.196,0s9,1.801,11,0
		s11.246-4.367,7.727-6.042S233.697,212.092,227.834,214.116z"/>
</g>
<g id="Capa_3">
	<ellipse fill="#FFFFFF" cx="143.501" cy="304.634" rx="135" ry="52.758"/>
	<ellipse fill="#FFFFFF" cx="362.834" cy="314.832" rx="134.999" ry="84.865"/>
</g>
<g id="Capa_2">
	<g>
		<rect x="118.792" y="203.636" fill="#999999" width="32" height="31.488"/>
		<polygon fill="#FF7175" points="134.792,203.636 110.641,203.636 122.717,185.718 134.792,167.8 146.867,185.718 158.942,203.636 
					"/>
		<path fill="#595959" d="M138.94,214.117v-4.584c0-2.291-1.857-4.148-4.149-4.148s-4.149,1.857-4.149,4.148v4.584H138.94z"/>
		<path fill="#99424D" d="M125.891,188.935c-1.101,0-2.063-0.604-2.598-1.507c0.108,1.253,1.218,2.239,2.574,2.239
			c1.319,0,2.405-0.933,2.563-2.137C127.883,188.376,126.95,188.935,125.891,188.935z"/>
		<path fill="#99424D" d="M129.432,193.381c-1.101,0-2.063-0.604-2.598-1.507c0.108,1.253,1.218,2.239,2.574,2.239
			c1.319,0,2.405-0.933,2.563-2.137C131.424,192.823,130.492,193.381,129.432,193.381z"/>
		<polygon fill="#7C7C7C" points="149.729,234.867 121.062,234.867 114.354,227.117 155.229,227.117 		"/>
		<rect x="123.437" y="240.576" fill="#B7B7B7" width="8.333" height="4"/>
		<rect x="123.979" y="252.076" fill="#B7B7B7" width="8.333" height="4"/>
		<rect x="68.667" y="196.583" fill="#A5A4A4" width="5.818" height="2.793"/>
		<rect x="75.355" y="199.375" fill="#A5A4A4" width="5.818" height="2.792"/>
		<rect x="68.667" y="202.167" fill="#A5A4A4" width="5.818" height="2.793"/>
		<rect x="164.356" y="196.583" fill="#A5A4A4" width="5.818" height="2.793"/>
		<rect x="171.044" y="199.375" fill="#A5A4A4" width="5.818" height="2.792"/>
		<rect x="164.356" y="202.167" fill="#A5A4A4" width="5.818" height="2.793"/>
		<rect x="70.563" y="174.728" fill="#8C8C8C" width="32" height="23.25"/>
		<polygon fill="#FF7175" points="86.563,174.728 62.412,174.728 74.488,156.81 86.563,138.891 98.638,156.81 110.713,174.728 		"/>
		<path fill="#595959" d="M90.711,185.208v-4.583c0-2.292-1.857-4.149-4.149-4.149s-4.149,1.857-4.149,4.149v4.583H90.711z"/>
		<path fill="#99424D" d="M83.44,151c-1.101,0-2.063-0.604-2.598-1.507c0.108,1.253,1.218,2.239,2.574,2.239
			c1.319,0,2.405-0.933,2.563-2.137C85.433,150.442,84.5,151,83.44,151z"/>
		<path fill="#99424D" d="M80.872,154.404c-1.101,0-2.063-0.604-2.598-1.507c0.108,1.253,1.218,2.239,2.574,2.239
			c1.319,0,2.405-0.933,2.563-2.137C82.864,153.846,81.932,154.404,80.872,154.404z"/>
		<path fill="#99424D" d="M84.024,157.787c-1.101,0-2.063-0.604-2.598-1.507c0.108,1.253,1.218,2.239,2.574,2.239
			c1.319,0,2.405-0.933,2.563-2.137C86.017,157.229,85.084,157.787,84.024,157.787z"/>
		<path fill="#99424D" d="M134.822,177.109c-1.101,0-2.063-0.604-2.598-1.507c0.108,1.253,1.218,2.239,2.574,2.239
			c1.319,0,2.405-0.933,2.563-2.137C136.814,176.55,135.881,177.109,134.822,177.109z"/>
		<path fill="#99424D" d="M131.8,181.067c-1.101,0-2.063-0.604-2.598-1.507c0.108,1.253,1.218,2.239,2.574,2.239
			c1.319,0,2.405-0.933,2.563-2.137C133.792,180.509,132.86,181.067,131.8,181.067z"/>
		<path fill="#99424D" d="M77.662,160.026c-1.101,0-2.063-0.604-2.598-1.507c0.108,1.253,1.218,2.239,2.574,2.239
			c1.319,0,2.405-0.933,2.563-2.137C79.654,159.467,78.721,160.026,77.662,160.026z"/>
		<path fill="#99424D" d="M81.203,164.473c-1.101,0-2.063-0.604-2.598-1.507c0.108,1.253,1.218,2.239,2.574,2.239
			c1.319,0,2.405-0.933,2.563-2.137C83.195,163.914,82.263,164.473,81.203,164.473z"/>
		<rect x="165.252" y="176.125" fill="#8C8C8C" width="32" height="23.25"/>
		<polygon fill="#FF7175" points="181.252,176.125 157.101,176.125 169.177,158.207 181.252,140.289 193.327,158.207 
			205.402,176.125 		"/>
		<path fill="#595959" d="M185.4,186.605v-4.583c0-2.292-1.857-4.149-4.149-4.149c-2.291,0-4.148,1.857-4.148,4.149v4.583H185.4z"/>
		<path fill="#99424D" d="M178.13,152.398c-1.102,0-2.063-0.604-2.599-1.507c0.108,1.253,1.218,2.239,2.573,2.239
			c1.319,0,2.406-0.933,2.563-2.137C180.122,151.839,179.188,152.398,178.13,152.398z"/>
		<path fill="#99424D" d="M175.562,155.802c-1.102,0-2.063-0.604-2.599-1.507c0.108,1.253,1.218,2.239,2.573,2.239
			c1.319,0,2.406-0.933,2.563-2.137C177.554,155.243,176.62,155.802,175.562,155.802z"/>
		<path fill="#99424D" d="M178.714,159.185c-1.102,0-2.063-0.604-2.599-1.507c0.108,1.253,1.218,2.239,2.573,2.239
			c1.319,0,2.406-0.933,2.563-2.137C180.706,158.626,179.772,159.185,178.714,159.185z"/>
		<path fill="#99424D" d="M172.351,161.423c-1.102,0-2.063-0.604-2.598-1.507c0.107,1.253,1.217,2.239,2.573,2.239
			c1.319,0,2.405-0.933,2.563-2.137C174.343,160.865,173.41,161.423,172.351,161.423z"/>
		<path fill="#99424D" d="M175.892,165.87c-1.101,0-2.063-0.604-2.598-1.507c0.107,1.253,1.218,2.239,2.574,2.239
			c1.318,0,2.404-0.933,2.563-2.137C177.884,165.312,176.952,165.87,175.892,165.87z"/>
		<rect x="72.833" y="214.958" fill="#A0A0A0" width="28.667" height="55.666"/>
		<polygon fill="#B7B7B7" points="164.249,226.292 164.249,219.292 157.333,219.292 157.333,226.292 151.25,226.292 151.25,219.292 
			144.333,219.292 144.333,226.292 138.25,226.292 138.25,219.292 131.333,219.292 131.333,226.292 125.25,226.292 125.25,219.292 
			118.333,219.292 118.333,226.292 112.25,226.292 112.25,219.292 105.333,219.292 105.333,226.292 101.5,226.292 101.5,270.625 
			167.999,270.625 167.999,226.292 		"/>
		<polygon fill="#7C7C7C" points="101.5,214.958 72.833,214.958 66.125,207.208 107,207.208 		"/>
		<polygon fill="#B7B7B7" points="100.083,187.458 100.083,194.458 95.681,194.458 95.681,187.458 88.764,187.458 88.764,194.458 
			84.361,194.458 84.361,187.458 77.444,187.458 77.444,194.458 73.042,194.458 73.042,187.458 66.125,187.458 66.125,194.458 
			66.125,207.208 107,207.208 107,194.458 107,187.458 		"/>
		<rect x="75.208" y="220.667" fill="#B7B7B7" width="8.333" height="4"/>
		<rect x="84.083" y="226.125" fill="#B7B7B7" width="8.333" height="4"/>
		<rect x="75.75" y="232.167" fill="#B7B7B7" width="8.333" height="4"/>
		<rect x="167.522" y="214.958" fill="#A0A0A0" width="28.667" height="55.666"/>
		<polygon fill="#7C7C7C" points="196.189,214.958 167.522,214.958 160.814,207.208 201.689,207.208 		"/>
		<polygon fill="#B7B7B7" points="194.772,187.458 194.772,194.458 190.37,194.458 190.37,187.458 183.454,187.458 183.454,194.458 
			179.05,194.458 179.05,187.458 172.134,187.458 172.134,194.458 167.731,194.458 167.731,187.458 160.814,187.458 
			160.814,194.458 160.814,207.208 201.689,207.208 201.689,194.458 201.689,187.458 		"/>
		<rect x="170.897" y="220.667" fill="#B7B7B7" width="8.334" height="4"/>
		<rect x="178.772" y="226.125" fill="#B7B7B7" width="8.334" height="4"/>
		<rect x="171.438" y="232.167" fill="#B7B7B7" width="8.334" height="4"/>
		<g>
			<path fill="#878787" d="M127.323,260.81v9.814h3.057v-12.879C129.227,258.492,128.191,259.533,127.323,260.81z"/>
			<path fill="#878787" d="M131.058,257.353v13.271h3.057v-14.137C133.043,256.55,132.017,256.849,131.058,257.353z"/>
			<path fill="#878787" d="M138.526,257.638v12.986h3.057v-10.051C140.708,259.344,139.673,258.346,138.526,257.638z"/>
			<path fill="#878787" d="M142.261,261.623v9.002h2.281C144.542,267.207,143.686,264.07,142.261,261.623z"/>
			<path fill="#878787" d="M124.521,270.625h2.125v-8.706C125.319,264.322,124.521,267.339,124.521,270.625z"/>
			<path fill="#878787" d="M134.792,256.477v14.147h3.057v-13.353C136.888,256.793,135.862,256.516,134.792,256.477z"/>
			<path fill="#636363" d="M126.646,261.918v8.706h0.677v-9.814C127.084,261.162,126.859,261.533,126.646,261.918z"/>
			<path fill="#636363" d="M130.38,257.746v12.879h0.677v-13.271C130.828,257.473,130.602,257.602,130.38,257.746z"/>
			<path fill="#636363" d="M134.531,256.458c-0.141,0-0.277,0.021-0.417,0.029v14.137h0.677v-14.147
				C134.705,256.474,134.619,256.458,134.531,256.458z"/>
			<path fill="#636363" d="M137.849,257.272v13.353h0.677v-12.986C138.306,257.503,138.078,257.386,137.849,257.272z"/>
			<path fill="#636363" d="M141.583,260.574v10.051h0.677v-9.002C142.048,261.257,141.821,260.908,141.583,260.574z"/>
		</g>
		<path fill="#898989" d="M115.298,243.708v-4.583c0-2.292-1.857-4.149-4.149-4.149S107,236.833,107,239.125v4.583H115.298z"/>
		<path fill="#898989" d="M130.804,243.708v-4.583c0-2.292-1.857-4.149-4.149-4.149s-4.149,1.857-4.149,4.149v4.583H130.804z"/>
		<path fill="#898989" d="M146.309,243.708v-4.583c0-2.292-1.857-4.149-4.149-4.149s-4.149,1.857-4.149,4.149v4.583H146.309z"/>
		<path fill="#898989" d="M161.815,243.708v-4.583c0-2.292-1.857-4.149-4.149-4.149s-4.149,1.857-4.149,4.149v4.583H161.815z"/>
		<rect x="85.73" y="124.041" fill="#7F7F7F" width="1.598" height="16.35"/>
		<path fill="#BC3C46" d="M85.917,124.041c0,0-3.083,1.917-5.833,1.625s-6-1.958-6-1.958l1,1.742L73,126.583
			c0,0,4.545,1.625,7.542,1.875c3,0.25,5.25-1.167,5.25-1.167L85.917,124.041z"/>
		<rect x="180.456" y="125.041" fill="#7F7F7F" width="1.598" height="16.35"/>
		<path fill="#BC3C46" d="M180.642,125.041c0,0-3.083,1.917-5.833,1.625s-6-1.958-6-1.958l1,1.742l-2.083,1.133
			c0,0,4.545,1.625,7.541,1.875c3,0.25,5.25-1.167,5.25-1.167L180.642,125.041z"/>
		<rect x="133.996" y="153.027" fill="#7F7F7F" width="1.598" height="16.35"/>
		<path fill="#BC3C46" d="M134.181,153.027c0,0-3.083,1.917-5.833,1.625s-6-1.958-6-1.958l1,1.742l-2.083,1.133
			c0,0,4.545,1.625,7.541,1.875c3,0.25,5.25-1.167,5.25-1.167L134.181,153.027z"/>
	</g>
	<rect x="300.883" y="225.621" fill="#846241" width="8" height="18.833"/>
	<polygon fill="#76A377" points="313.215,214.789 312.819,214.104 319.22,214.104 312.051,201.688 310.175,198.438 318.643,198.438 
		312.051,187.022 305.459,175.605 298.868,187.022 292.276,198.438 299.59,198.438 297.714,201.688 290.545,214.104 
		296.944,214.104 296.55,214.789 288.216,229.222 304.881,229.222 321.549,229.222 	"/>
	<path fill="#FFFFFF" d="M304.882,175.204c-0.464,0.521-6.673,12.434-7.152,13.188s3.938-1.43,3.938-1.43s0.188,4.648,1.25,4.992
		s7.917-5.396,7.917-5.396s0.768,1.609,1.634,1.328c0.719-0.233-3.982-8.818-5.94-11.728
		C306.126,175.563,305.793,174.684,304.882,175.204z"/>
	<rect x="419.549" y="242.988" fill="#846241" width="8" height="18.833"/>
	<polygon fill="#76A377" points="431.881,232.156 431.485,231.472 437.886,231.472 430.717,219.055 428.841,215.806 
		437.309,215.806 430.717,204.389 424.125,192.972 417.534,204.389 410.942,215.806 418.256,215.806 416.38,219.055 
		409.211,231.472 415.61,231.472 415.216,232.156 406.882,246.589 423.547,246.589 440.215,246.589 	"/>
	<path fill="#FFFFFF" d="M423.548,192.571c-0.464,0.521-6.673,12.434-7.152,13.188s3.938-1.43,3.938-1.43s0.188,4.648,1.25,4.992
		s7.917-5.396,7.917-5.396s0.768,1.609,1.634,1.328c0.719-0.233-3.982-8.818-5.94-11.728
		C424.792,192.93,424.459,192.051,423.548,192.571z"/>
	<path opacity="0.6" fill="#727272" d="M273.755,101.366c-16.166-4.5-16.166,3.333-23.333,5.333s-11.5-3.5-10.167-10.167
		s10.833-4.667,10.833-4.667s-4.167-1.833-5.5-5.833s6-4.667,6-4.667s-5.833,0.667-6.333-7.5S255.922,61.2,255.922,61.2
		s-11.838,0.667-17.171,5.333s-5.667,12.083-5,19.25s3.505,14.25-4.995,13.417s-4.833-9.833-4.833-9.833s3.833-5.167,3.167-5.333
		c-0.167-0.042-2.484-0.396-3.292,0.802s-3.042,0.864-3.042,0.864c-0.481,0.375-0.881,0.83-1.224,1.333H218
		c0,0,0.177,1.558,0.63,1.821h0c-1.849,5.5,1.37,14.513,1.37,14.513s-5.412-6.5-16.745-11.667s-22,8.5-22,8.5s7.745-3.834,13.912-2
		s2.588,14.167,2.588,14.167s3.412-4.75,7.912-4.75s6.588,7.25,6.588,7.25s0.167-3.667,5.289-4.5s7.044,3.333,7.044,3.333
		s2.5-1.833,5.667-2.667s3.5,0.833,13.167,3.833s9.333-6.667,25.333-10.167c16-3.5,21.333,14,21.333,14
		S289.922,105.866,273.755,101.366z"/>
	<polygon fill="#FFFFFF" points="377.75,120.162 380.335,124.884 385.054,127.465 380.335,130.05 377.75,134.771 375.165,130.05 
		370.446,127.465 375.165,124.884 	"/>
	<polygon fill="#FFFFFF" points="350.749,25.811 353.334,30.534 358.053,33.115 353.334,35.699 350.749,40.42 348.164,35.699 
		343.445,33.115 348.164,30.534 	"/>
	<polygon fill="#FFFFFF" points="125.445,79.162 127.539,82.986 131.361,85.077 127.539,87.17 125.445,90.993 123.352,87.17 
		119.53,85.077 123.352,82.986 	"/>
	<polygon fill="#FFFFFF" points="40.439,101.61 42.533,105.435 46.354,107.526 42.533,109.619 40.439,113.442 38.346,109.619 
		34.524,107.526 38.346,105.435 	"/>
	<polygon fill="#FFFFFF" points="233.416,149.505 235.441,153.205 239.138,155.227 235.441,157.251 233.416,160.949 
		231.391,157.251 227.694,155.227 231.391,153.205 	"/>
	<ellipse fill="#FFFFFF" cx="424.667" cy="265.282" rx="10" ry="7.083"/>
	<ellipse fill="#FFFFFF" cx="304.917" cy="248.949" rx="10.25" ry="7.583"/>
</g>
</svg>
